<svg width="16" height="13" viewBox="0 0 16 13" fill="none"
    xmlns="http://www.w3.org/2000/svg">
    <path d="M13.929 0.933594H2.67896C1.64331 0.933594 0.803955 1.77295 0.803955 2.80859V10.3086C0.803955 11.3442 1.64331 12.1836 2.67896 12.1836H13.929C14.9646 12.1836 15.804 11.3442 15.804 10.3086V2.80859C15.804 1.77295 14.9631 0.933594 13.929 0.933594ZM2.67896 2.33984H13.929C14.1874 2.33984 14.3977 2.55014 14.3977 2.80859V3.45781L9.51099 7.50371C8.83159 8.06855 7.77251 8.06826 7.09487 7.50417L2.21021 3.45898V2.80859C2.21021 2.55078 2.42056 2.33984 2.67896 2.33984ZM13.929 10.7773H2.67896C2.4205 10.7773 2.21021 10.5671 2.21021 10.3086V5.29004L6.19751 8.6123C6.78931 9.10156 7.53638 9.37109 8.30396 9.37109C9.07153 9.37109 9.82007 9.10191 10.4125 8.60996L14.3977 5.29004V10.3086C14.3977 10.5664 14.1868 10.7773 13.929 10.7773Z" fill="#A6A6A6"/>
</svg>
