<svg width="16" height="16" viewBox="0 0 16 16" fill="none"
    xmlns="http://www.w3.org/2000/svg">
    <path d="M0.803955 11.0819C0.803955 9.06681 0.803955 8.05857 1.43028 7.43296C2.05588 6.80664 3.06412 6.80664 5.07918 6.80664H10.7795C12.7945 6.80664 13.8028 6.80664 14.4284 7.43296C15.0547 8.05857 15.0547 9.06681 15.0547 11.0819C15.0547 13.0969 15.0547 14.1052 14.4284 14.7308C13.8028 15.3571 12.7945 15.3571 10.7795 15.3571H5.07918C3.06412 15.3571 2.05588 15.3571 1.43028 14.7308C0.803955 14.1052 0.803955 13.0969 0.803955 11.0819Z" stroke="#A6A6A6" stroke-width="1.06881"/>
    <path d="M3.6541 6.80671V5.38164C3.6541 4.24778 4.10452 3.16036 4.90628 2.3586C5.70804 1.55684 6.79546 1.10641 7.92932 1.10641C9.06318 1.10641 10.1506 1.55684 10.9524 2.3586C11.7541 3.16036 12.2045 4.24778 12.2045 5.38164V6.80671" stroke="#A6A6A6" stroke-width="1.06881" stroke-linecap="round"/>
    <path d="M5.07922 11.082H5.08564M7.92296 11.082H7.92937M10.7731 11.082H10.7795" stroke="#A6A6A6" stroke-width="1.42507" stroke-linecap="round" stroke-linejoin="round"/>
</svg>
