<svg width="11" height="16" viewBox="0 0 11 16" fill="none"
    xmlns="http://www.w3.org/2000/svg">
    <path d="M8.17984 15.0586H3.35715C1.93871 15.0586 0.803955 13.9677 0.803955 12.604V2.51314C0.803955 1.1495 1.93871 0.0585938 3.35715 0.0585938H8.25076C9.6692 0.0585938 10.804 1.1495 10.804 2.51314V12.6722C10.733 13.9677 9.59828 15.0586 8.17984 15.0586ZM3.35715 1.42223C2.71885 1.42223 2.22239 1.8995 2.22239 2.51314V12.6722C2.22239 13.2177 2.71885 13.695 3.35715 13.695H8.25076C8.88906 13.695 9.38552 13.2177 9.38552 12.604V2.51314C9.31459 1.8995 8.81814 1.42223 8.17984 1.42223H3.35715Z" fill="#A6A6A6"/>
    <path d="M6.69044 3.67211H4.84647C4.42093 3.67211 4.13725 3.39938 4.13725 2.99029C4.13725 2.5812 4.42093 2.30847 4.84647 2.30847H6.76136C7.18689 2.30847 7.47058 2.5812 7.47058 2.99029C7.47058 3.39938 7.11597 3.67211 6.69044 3.67211Z" fill="#A6A6A6"/>
</svg>
