<svg width="15" height="16" viewBox="0 0 15 16" fill="none"
    xmlns="http://www.w3.org/2000/svg">
    <path fill-rule="evenodd" clip-rule="evenodd" d="M5.08753 9.16018C5.10006 9.15957 5.1126 9.15927 5.12514 9.15927H10.1342C10.1468 9.15927 10.1593 9.15957 10.1718 9.16018C11.9261 9.24724 13.4812 10.3149 14.1932 11.9191C14.7046 12.9423 14.4195 13.9552 13.7665 14.6528C13.1341 15.3282 12.1545 15.7316 11.1363 15.7316H4.12311C3.1053 15.7316 2.1259 15.3281 1.49368 14.6528C0.840785 13.9554 0.555304 12.9426 1.06605 11.9193C1.77813 10.3149 3.33319 9.24734 5.08753 9.16018ZM5.14497 10.676C3.96509 10.7412 2.92142 11.4645 2.44656 12.5476C2.44068 12.5611 2.43441 12.5743 2.42776 12.5874C2.23764 12.9606 2.30863 13.3041 2.60088 13.6162C2.91809 13.955 3.48168 14.2149 4.12311 14.2149H11.1363C11.7783 14.2149 12.3421 13.9549 12.6592 13.6162C12.9513 13.3043 13.0222 12.9611 12.8318 12.5878C12.8251 12.5746 12.8188 12.5612 12.8128 12.5476C12.338 11.4645 11.2943 10.7412 10.1144 10.676H5.14497Z" fill="#A6A6A6"/>
    <path fill-rule="evenodd" clip-rule="evenodd" d="M7.6297 1.57548C6.37319 1.57548 5.35452 2.59412 5.35452 3.85067C5.35452 5.10723 6.37319 6.12587 7.6297 6.12587C8.88631 6.12587 9.90489 5.10723 9.90489 3.85067C9.90489 3.24725 9.66524 2.66855 9.23851 2.24187C8.81179 1.81518 8.23308 1.57548 7.6297 1.57548ZM3.83772 3.85067C3.83772 1.75641 5.53545 0.0586853 7.6297 0.0586853C8.63544 0.0586853 9.59992 0.458199 10.3111 1.16933C11.0222 1.88047 11.4217 2.84498 11.4217 3.85067C11.4217 5.94496 9.72399 7.64266 7.6297 7.64266C5.53545 7.64266 3.83772 5.94496 3.83772 3.85067Z" fill="#A6A6A6"/>
</svg>
